<?xml version="1.0" encoding="utf-8"?>
<svg width="100px" height="100px" viewBox="0 0 100 100" version="1.1" xmlns:xlink="http://www.w3.org/1999/xlink" xmlns="http://www.w3.org/2000/svg">
  <defs>
    <path d="M0 0L100 0L100 100L0 100L0 0Z" id="path_1" />
    <clipPath id="clip_1">
      <use xlink:href="#path_1" />
    </clipPath>
  </defs>
  <g id="github" clip-path="url(#clip_1)">
    <path d="M0 0L100 0L100 100L0 100L0 0Z" id="github" fill="none" fill-rule="evenodd" stroke="none" />
    <path d="M6 57C6 32.1472 25.6995 12 50 12C74.3005 12 94 32.1472 94 57C94 81.8528 74.3005 102 50 102C25.6995 102 6 81.8528 6 57Z" id="Oval" fill="#FFFFFF" fill-rule="evenodd" stroke="none" />
    <path d="M50 0C77.615 0 100 22.9492 100 51.2656C100 73.9102 85.69 93.1211 65.835 99.9063C63.3 100.41 62.4 98.8125 62.4 97.4453C62.4 95.7539 62.46 90.2344 62.46 83.375C62.46 78.5977 60.86 75.4766 59.065 73.8828C70.2 72.6133 81.9 68.2773 81.9 48.5898C81.9 42.9922 79.96 38.4219 76.75 34.8281C77.27 33.5352 78.985 28.3203 76.26 21.2578C76.26 21.2578 72.07 19.8867 62.525 26.5156C58.53 25.3828 54.25 24.8086 50 24.7891C45.75 24.8086 41.475 25.3828 37.485 26.5156C27.93 19.8867 23.73 21.2578 23.73 21.2578C21.015 28.3203 22.73 33.5352 23.245 34.8281C20.05 38.4219 18.095 42.9922 18.095 48.5898C18.095 68.2305 29.77 72.6289 40.875 73.9258C39.445 75.2031 38.15 77.4648 37.7 80.7773C34.85 82.0898 27.61 84.3555 23.15 76.5195C23.15 76.5195 20.505 71.5938 15.485 71.2344C15.485 71.2344 10.61 71.168 15.145 74.3516C15.145 74.3516 18.42 75.9258 20.695 81.8516C20.695 81.8516 23.63 91 37.54 87.8984C37.565 92.1836 37.61 96.2266 37.61 97.4453C37.61 98.7969 36.69 100.387 34.195 99.9102C14.325 93.1328 0 73.9141 0 51.2656C0 22.9492 22.39 0 50 0" id="Page-1" fill="#000000" fill-rule="evenodd" stroke="none" />
  </g>
</svg>