<?xml version="1.0" encoding="utf-8"?>
<svg width="50px" height="50px" viewBox="0 0 50 50" version="1.1" xmlns:xlink="http://www.w3.org/1999/xlink" xmlns="http://www.w3.org/2000/svg">
  <defs>
    <path d="M0 0L50 0L50 50L0 50L0 0Z" id="path_1" />
    <clipPath id="clip_1">
      <use xlink:href="#path_1" />
    </clipPath>
  </defs>
  <g id="mail" clip-path="url(#clip_1)">
    <path d="M0 0L50 0L50 50L0 50L0 0Z" id="mail" fill="none" fill-rule="evenodd" stroke="none" />
    <path d="M-0.0273438 8.78845L49.9727 8.78845L49.9727 39.7885L-0.0273438 39.7885L-0.0273438 8.78845Z" id="Rectangle" fill="#FFFFFF" fill-rule="evenodd" stroke="none" />
    <path d="M50 28.828L43.5469 22.1249L50 16.5625L50 28.828ZM6.46094 22.1249L0 28.8358L0 16.5625L6.46094 22.1249ZM50 34.9219L50 41.0937C50 42.586 48.7892 43.797 47.2971 43.797L2.70314 43.797C1.21084 43.797 0 42.5861 0 41.0937L0 34.9219L9.66401 24.8905L20.7032 34.3983C21.8517 35.3828 23.375 35.9297 25 35.9297C26.6253 35.9297 28.1565 35.3828 29.3049 34.3983L40.3361 24.8905L50 34.9219L50 34.9219ZM50 8.89835L50 11.6015L26.4218 31.914C25.664 32.5702 24.3359 32.5702 23.5782 31.914L0 11.6015L0 8.89835C0 7.40625 1.21075 6.20303 2.70314 6.20303L47.2971 6.20303C48.7892 6.20303 50 7.40625 50 8.89835L50 8.89835Z" id="SVGRepo_iconCarrier" fill="#FF0000" stroke="none" />
  </g>
</svg>