<svg id="Layer_1" data-name="Layer 1" xmlns="http://www.w3.org/2000/svg" viewBox="0 0 975.39 179.8"><defs><style>.cls-1{fill:#3faab6;}.cls-2{fill:#eee6d1;}.cls-3{fill:#01576b;}.cls-4{fill:#3e85b6;}.cls-5{fill:#f0e6c7;}.cls-6{fill:#0076a1;}.cls-7{fill:#003447;}</style></defs><title>sfg</title><path class="cls-1" d="M153.89,23.8c36.24,31.8,40.92,86,2.34,128.11-19.58,21.37-60.13,38.39-85.82,20.19a85.44,85.44,0,0,0,28.29-7.95c40.28-20,63-58.8,57.36-94.55,0-.45,0-0.92,0-1.38-1.73-84.08-96-73.5-124.1-37.6,21.18-27.53,73.69-49.1,121.92-6.82"/><path class="cls-2" d="M156.05,69.6c5.68,35.75-17.07,74.54-57.36,94.56a85.34,85.34,0,0,1-28.29,7.93l-0.62-.42c-9.63-7.1-15.34-16.62-17.06-26.88A74.77,74.77,0,0,0,66,146.63c52.65,2.31,90.2-32.75,90.08-77"/><path class="cls-3" d="M156.07,68.21c0,0.47,0,.93,0,1.38a68.56,68.56,0,0,0-7-21.12c-14-26.63-36-37.58-57.81-38.72C69,4.31,41.47,16,28.91,35.07c0.44-.73.89-1.44,1.37-2.15l0.36-.5c0.29-.41.59-0.81,0.89-1.22l0.35-.48a0.54,0.54,0,0,0,.09-0.1c28.12-35.9,122.37-46.49,124.1,37.6"/><path class="cls-4" d="M156.05,69.6c0.12,44.28-37.43,79.34-90.08,77a74.77,74.77,0,0,1-13.24-1.84c-3.27-19.31,7.55-41.28,32.68-54.94C97.12,83.48,109.14,75.11,116,64.77c7.14-3.1,12.17-9.55,13.13-21.18,1.55-18.93-12.58-28.78-31-31.46a41.08,41.08,0,0,0-7-2.38c21.82,1.14,43.84,12.09,57.81,38.72a68.82,68.82,0,0,1,7,21.12"/><path class="cls-2" d="M98.22,12.13c18.38,2.68,32.51,12.53,31,31.46-1,11.63-6,18.08-13.12,21.18,7.15-10.73,8.8-23.57-1.18-38.53A38.45,38.45,0,0,0,98.22,12.13"/><path class="cls-5" d="M114.86,26.25c10,15,8.34,27.79,1.18,38.51-4.52,2-9.86,2.57-15.57,2.29,5.53-6.77,7.84-15.82,4.48-27.94C95.48,4.83,53.39,10.74,33,31.63a63.18,63.18,0,0,1,12.8-10.24c15.13-8.14,35.54-11.73,52.41-9.25a38.29,38.29,0,0,1,16.64,14.11"/><path class="cls-6" d="M100.47,67c5.71,0.28,11.06-.34,15.57-2.29C109.14,75.11,97.11,83.48,85.4,89.84c-25.13,13.66-36,35.64-32.68,54.95-15.76-3.56-32.27-12-42.53-24.2,4.52-17.28,21.28-32,47.11-35.34,15.89-2.07,34-7,43.17-18.19"/><path class="cls-6" d="M91.26,9.76a41.74,41.74,0,0,1,7,2.38c-16.87-2.47-37.29,1.11-52.41,9.26A80.72,80.72,0,0,1,91.26,9.76"/><path class="cls-7" d="M91.26,9.76A80.72,80.72,0,0,0,45.81,21.39C37,26.13,30,32.41,26.57,39.95c-0.11.2-.24,0.4-0.35,0.6a35.85,35.85,0,0,1,2.68-5.47C41.47,16,69,4.31,91.26,9.76"/><path class="cls-7" d="M67.88,58.87c9.91,3.9,21.86,7.61,32.59,8.18C91.28,78.27,73.19,83.17,57.3,85.24c-25.83,3.36-42.59,18.06-47.11,35.34C4.45,113.76.65,105.74,0.09,96.73c-2-32.14,29.8-52.84,67.79-37.86"/><path class="cls-5" d="M69.79,171.66c0.2,0.15.41,0.28,0.62,0.42-21.19,2.29-43.84-2.77-54.76-19.9-6.52-10.24-8.12-21.37-5.45-31.59,10.26,12.18,26.77,20.64,42.53,24.2,1.72,10.26,7.43,19.78,17.06,26.88"/><path class="cls-7" d="M26.57,39.95C30,32.41,37,26.13,45.81,21.39A63.37,63.37,0,0,0,33,31.63c-0.33.33-.64,0.66-1,1l-0.65.72-0.25.28c-0.45.53-.87,1-1.3,1.57a43.18,43.18,0,0,0-3.28,4.75"/><path class="cls-7" d="M286.4,71.84a4,4,0,0,1-1,1.2,2.29,2.29,0,0,1-1.35.38,3.51,3.51,0,0,1-1.92-.72q-1.06-.72-2.62-1.6a23,23,0,0,0-3.68-1.62A17.31,17.31,0,0,0,266,69.4a9.89,9.89,0,0,0-3.45,1.9,7.82,7.82,0,0,0-2.1,2.87,9.09,9.09,0,0,0-.7,3.59A6.43,6.43,0,0,0,261,81.88a11.19,11.19,0,0,0,3.45,2.82,27.79,27.79,0,0,0,4.9,2.05q2.75,0.88,5.62,1.87t5.62,2.26a19.16,19.16,0,0,1,4.9,3.21A14.73,14.73,0,0,1,289,98.83a16,16,0,0,1,1.31,6.82,22,22,0,0,1-1.49,8.13,19.14,19.14,0,0,1-4.31,6.61,20.08,20.08,0,0,1-7,4.45,25.56,25.56,0,0,1-9.41,1.63,30,30,0,0,1-6.07-.61,31.42,31.42,0,0,1-5.64-1.72,28.23,28.23,0,0,1-5-2.69,25.26,25.26,0,0,1-4.2-3.52l3.07-5.06a3,3,0,0,1,1-1,2.77,2.77,0,0,1,1.4-.36,3.92,3.92,0,0,1,2.3,1q1.26,1,3,2.12a23.43,23.43,0,0,0,4.31,2.12,16.87,16.87,0,0,0,6,1q5.73,0,8.87-2.8a9.81,9.81,0,0,0,3.14-7.72,7.27,7.27,0,0,0-1.31-4.49,10.66,10.66,0,0,0-3.45-2.91,24.83,24.83,0,0,0-4.9-2q-2.75-.81-5.6-1.74a54.67,54.67,0,0,1-5.6-2.17,17.8,17.8,0,0,1-4.9-3.25,15,15,0,0,1-3.45-5,18.25,18.25,0,0,1-1.31-7.38,17.56,17.56,0,0,1,5.39-12.66,19.68,19.68,0,0,1,6.52-4.09A23.93,23.93,0,0,1,270.65,60a28.9,28.9,0,0,1,10.27,1.76,23.39,23.39,0,0,1,8.06,5Z"/><path class="cls-7" d="M319.76,79A24.43,24.43,0,0,1,329,80.64a19.8,19.8,0,0,1,7,4.74,21.06,21.06,0,0,1,4.49,7.45,31.43,31.43,0,0,1,0,19.68A21.28,21.28,0,0,1,336,120a19.65,19.65,0,0,1-7,4.76,26.47,26.47,0,0,1-18.51,0,19.87,19.87,0,0,1-7.06-4.76,21.09,21.09,0,0,1-4.51-7.47,31.43,31.43,0,0,1,0-19.68,20.87,20.87,0,0,1,4.51-7.45,20,20,0,0,1,7.06-4.74A24.56,24.56,0,0,1,319.76,79Zm0,39.86q6.23,0,9.28-4.18t3-11.94q0-7.76-3-12t-9.28-4.22q-6.32,0-9.39,4.22t-3.07,12q0,7.76,3.07,11.94T319.76,118.83Z"/><path class="cls-7" d="M392.76,87.32v26.14a5.37,5.37,0,0,0,1.22,3.79,4.23,4.23,0,0,0,3.25,1.31,5.73,5.73,0,0,0,1.94-.29,8.77,8.77,0,0,0,1.4-.63q0.59-.34,1-0.63a1.38,1.38,0,0,1,2.14.61l2.89,4.74a15.74,15.74,0,0,1-5.33,3,19.23,19.23,0,0,1-6.32,1.06q-5.73,0-8.83-3.23t-3.09-9.1V87.32H363.14v38.42h-9.71V87.41l-4.51-.63A4,4,0,0,1,347.1,86a2.06,2.06,0,0,1-.7-1.67v-4h7V76.44a20.21,20.21,0,0,1,1.15-7,14.57,14.57,0,0,1,3.29-5.28,14.27,14.27,0,0,1,5.21-3.32A19.55,19.55,0,0,1,370,59.65a19.14,19.14,0,0,1,3,.23,17.47,17.47,0,0,1,2.78.68l-0.18,4.88a1.42,1.42,0,0,1-1.2,1.44,14.15,14.15,0,0,1-2.78.23,13.06,13.06,0,0,0-3.66.47,6.49,6.49,0,0,0-2.78,1.6,7.27,7.27,0,0,0-1.76,3,14.91,14.91,0,0,0-.61,4.6v3.57h20.58l2.17-13.41a2.57,2.57,0,0,1,.77-1.24,2.11,2.11,0,0,1,1.44-.47h5V80.33h12.78v7H392.76Z"/><path class="cls-7" d="M408.42,79.69h7.67a3,3,0,0,1,1.87.56,2.59,2.59,0,0,1,1,1.33l7.67,26.81q0.45,1.85.79,3.59t0.61,3.45q0.45-1.71.93-3.45T430,108.4l8.62-26.95a2.43,2.43,0,0,1,.93-1.33,2.76,2.76,0,0,1,1.69-.52h4.24a2.94,2.94,0,0,1,1.76.52,2.4,2.4,0,0,1,.95,1.33l8.4,26.95q0.5,1.85,1,3.61t0.9,3.48A66.7,66.7,0,0,1,460,108.4l7.81-26.81a2.75,2.75,0,0,1,1-1.35,2.84,2.84,0,0,1,1.76-.54h7.31l-14.76,46h-7.72q-1.35,0-1.9-1.76l-9.16-28.66q-0.36-1.22-.66-2.42t-0.52-2.42q-0.5,2.44-1.22,4.88L432.66,124a2.09,2.09,0,0,1-2.12,1.76h-7.36Z"/><path class="cls-7" d="M514.05,125.74a4.21,4.21,0,0,1-2.12-.43,3.29,3.29,0,0,1-1.22-1.74l-0.95-3.75a35.27,35.27,0,0,1-3.48,2.84,22.9,22.9,0,0,1-3.54,2.08,17.43,17.43,0,0,1-3.93,1.29,23.18,23.18,0,0,1-4.63.43,17.13,17.13,0,0,1-5.21-.77,11.44,11.44,0,0,1-4.18-2.33,11,11,0,0,1-2.78-3.86,13.34,13.34,0,0,1-1-5.42,10.46,10.46,0,0,1,1.42-5.19,13,13,0,0,1,4.69-4.54,30.45,30.45,0,0,1,8.62-3.32A62.67,62.67,0,0,1,509,99.56V96.49q0-5-2.12-7.4a7.81,7.81,0,0,0-6.23-2.44,13.67,13.67,0,0,0-4.69.7,21.24,21.24,0,0,0-3.29,1.51q-1.4.81-2.48,1.51a4.17,4.17,0,0,1-2.3.7,2.76,2.76,0,0,1-1.69-.52A4.26,4.26,0,0,1,485,89.26l-1.76-3.16a26.37,26.37,0,0,1,18.6-7.27,18.26,18.26,0,0,1,7.06,1.29,14.15,14.15,0,0,1,5.19,3.63,16.08,16.08,0,0,1,3.21,5.57,22,22,0,0,1,1.11,7.16v29.25h-4.33Zm-16.93-6a14,14,0,0,0,6.52-1.42,20.86,20.86,0,0,0,5.3-4.09v-8.58a68.54,68.54,0,0,0-8.76.86,23.47,23.47,0,0,0-5.78,1.67,7.87,7.87,0,0,0-3.18,2.42,5.17,5.17,0,0,0-1,3,6.71,6.71,0,0,0,.52,2.78,5,5,0,0,0,1.44,1.9,5.87,5.87,0,0,0,2.17,1.08A10.34,10.34,0,0,0,497.12,119.69Z"/><path class="cls-7" d="M529.71,125.74v-46h5.64a3.07,3.07,0,0,1,2.12.56,3.47,3.47,0,0,1,.81,2l0.54,6a20.82,20.82,0,0,1,5.28-6.88,11.27,11.27,0,0,1,7.36-2.51,11.15,11.15,0,0,1,2.8.34,7.89,7.89,0,0,1,2.35,1l-0.68,7.31a1.81,1.81,0,0,1-.56,1.06,1.63,1.63,0,0,1-1,.29,10.87,10.87,0,0,1-1.94-.25,13.85,13.85,0,0,0-2.66-.25,10.35,10.35,0,0,0-3.61.59,8.38,8.38,0,0,0-2.8,1.72,11.87,11.87,0,0,0-2.17,2.75,26.54,26.54,0,0,0-1.76,3.7v28.62h-9.71Z"/><path class="cls-7" d="M580.72,79a21.87,21.87,0,0,1,7.85,1.38,17.23,17.23,0,0,1,6.23,4,18.59,18.59,0,0,1,4.08,6.52,24.6,24.6,0,0,1,1.47,8.78,6.2,6.2,0,0,1-.5,3,2,2,0,0,1-1.81.77H568.49a23,23,0,0,0,1.22,6.79,14,14,0,0,0,2.78,4.76,10.79,10.79,0,0,0,4.15,2.82,15,15,0,0,0,5.39.93,16.45,16.45,0,0,0,4.92-.65,23.08,23.08,0,0,0,3.61-1.44q1.53-.79,2.62-1.44a3.91,3.91,0,0,1,2-.65,2.07,2.07,0,0,1,1.81.9l2.75,3.57a17.46,17.46,0,0,1-3.88,3.43,22.61,22.61,0,0,1-4.6,2.28,26,26,0,0,1-5,1.26,34,34,0,0,1-5,.38,24.08,24.08,0,0,1-8.87-1.6,19.72,19.72,0,0,1-7.09-4.72,21.79,21.79,0,0,1-4.69-7.72,30.64,30.64,0,0,1-1.69-10.61,25.91,25.91,0,0,1,1.51-8.94,21.31,21.31,0,0,1,4.33-7.22,20.35,20.35,0,0,1,6.86-4.85A22.42,22.42,0,0,1,580.72,79Zm0.18,7q-5.28,0-8.31,3a14.68,14.68,0,0,0-3.84,8.49h22.89a14.25,14.25,0,0,0-.7-4.54,10.62,10.62,0,0,0-2.05-3.66,9.37,9.37,0,0,0-3.36-2.44A11.43,11.43,0,0,0,580.9,86Z"/><path class="cls-7" d="M635,125.74V87.41l-4.51-.63a4,4,0,0,1-1.83-.81,2.06,2.06,0,0,1-.7-1.67v-4h7V76.44a20.21,20.21,0,0,1,1.15-7,14.57,14.57,0,0,1,3.29-5.28,14.27,14.27,0,0,1,5.21-3.32,19.55,19.55,0,0,1,6.91-1.15,19.14,19.14,0,0,1,3,.23,17.47,17.47,0,0,1,2.78.68l-0.18,4.88a1.42,1.42,0,0,1-1.2,1.44,14.15,14.15,0,0,1-2.78.23,13.06,13.06,0,0,0-3.66.47,6.49,6.49,0,0,0-2.78,1.6,7.27,7.27,0,0,0-1.76,3,14.91,14.91,0,0,0-.61,4.6v3.57H657v7H644.69v38.42H635Z"/><path class="cls-7" d="M682.47,79a24.43,24.43,0,0,1,9.23,1.67,19.8,19.8,0,0,1,7,4.74,21.06,21.06,0,0,1,4.49,7.45,31.43,31.43,0,0,1,0,19.68,21.28,21.28,0,0,1-4.49,7.47,19.65,19.65,0,0,1-7,4.76,26.47,26.47,0,0,1-18.51,0,19.87,19.87,0,0,1-7.06-4.76,21.09,21.09,0,0,1-4.51-7.47,31.43,31.43,0,0,1,0-19.68,20.87,20.87,0,0,1,4.51-7.45,20,20,0,0,1,7.06-4.74A24.56,24.56,0,0,1,682.47,79Zm0,39.86q6.23,0,9.28-4.18t3-11.94q0-7.76-3-12t-9.28-4.22q-6.32,0-9.39,4.22t-3.07,12q0,7.76,3.07,11.94T682.47,118.83Z"/><path class="cls-7" d="M714.11,125.74v-46h5.64a3.07,3.07,0,0,1,2.12.56,3.47,3.47,0,0,1,.81,2l0.54,6a20.82,20.82,0,0,1,5.28-6.88,11.27,11.27,0,0,1,7.36-2.51,11.15,11.15,0,0,1,2.8.34,7.89,7.89,0,0,1,2.35,1l-0.68,7.31a1.81,1.81,0,0,1-.56,1.06,1.63,1.63,0,0,1-1,.29,10.87,10.87,0,0,1-1.94-.25,13.85,13.85,0,0,0-2.66-.25,10.35,10.35,0,0,0-3.61.59,8.38,8.38,0,0,0-2.8,1.72,11.87,11.87,0,0,0-2.17,2.75,26.54,26.54,0,0,0-1.76,3.7v28.62h-9.71Z"/><path class="cls-7" d="M800.47,126.46A39.46,39.46,0,0,1,786.18,124a31.72,31.72,0,0,1-10.9-6.86,30,30,0,0,1-7-10.5,35.79,35.79,0,0,1-2.44-13.41,37.31,37.31,0,0,1,2.35-13.47,29.44,29.44,0,0,1,17.29-17.33A38,38,0,0,1,799.43,60a40.93,40.93,0,0,1,7.29.61A36.12,36.12,0,0,1,813,62.31a29.27,29.27,0,0,1,5.33,2.62,29.79,29.79,0,0,1,4.47,3.43l-3,4.83a3,3,0,0,1-1.85,1.4,3.17,3.17,0,0,1-2.44-.54l-2.78-1.62a24.27,24.27,0,0,0-3.36-1.6,24.66,24.66,0,0,0-4.38-1.22,31.65,31.65,0,0,0-5.87-.47,24.26,24.26,0,0,0-9.28,1.69,19.84,19.84,0,0,0-7.06,4.83,21.42,21.42,0,0,0-4.51,7.61,29.77,29.77,0,0,0-1.58,10,30.23,30.23,0,0,0,1.67,10.41,21.71,21.71,0,0,0,4.74,7.76,20.22,20.22,0,0,0,7.43,4.85,29.63,29.63,0,0,0,16.88.81,32.54,32.54,0,0,0,6.16-2.39V101.77h-9.07a2.24,2.24,0,0,1-1.62-.56,1.94,1.94,0,0,1-.59-1.47v-6H823v25.73A37.58,37.58,0,0,1,800.47,126.46Z"/><path class="cls-7" d="M853.1,79a24.43,24.43,0,0,1,9.23,1.67,19.8,19.8,0,0,1,7,4.74,21.06,21.06,0,0,1,4.49,7.45,31.43,31.43,0,0,1,0,19.68,21.28,21.28,0,0,1-4.49,7.47,19.65,19.65,0,0,1-7,4.76,26.47,26.47,0,0,1-18.51,0,19.87,19.87,0,0,1-7.06-4.76,21.09,21.09,0,0,1-4.51-7.47,31.43,31.43,0,0,1,0-19.68,20.87,20.87,0,0,1,4.51-7.45,20,20,0,0,1,7.06-4.74A24.56,24.56,0,0,1,853.1,79Zm0,39.86q6.23,0,9.28-4.18t3-11.94q0-7.76-3-12t-9.28-4.22q-6.32,0-9.39,4.22t-3.07,12q0,7.76,3.07,11.94T853.1,118.83Z"/><path class="cls-7" d="M904.66,79a24.43,24.43,0,0,1,9.23,1.67,19.8,19.8,0,0,1,7,4.74,21.06,21.06,0,0,1,4.49,7.45,31.43,31.43,0,0,1,0,19.68,21.28,21.28,0,0,1-4.49,7.47,19.65,19.65,0,0,1-7,4.76,26.47,26.47,0,0,1-18.51,0,19.87,19.87,0,0,1-7.06-4.76,21.09,21.09,0,0,1-4.51-7.47,31.43,31.43,0,0,1,0-19.68,20.87,20.87,0,0,1,4.51-7.45,20,20,0,0,1,7.06-4.74A24.56,24.56,0,0,1,904.66,79Zm0,39.86q6.23,0,9.28-4.18t3-11.94q0-7.76-3-12t-9.28-4.22q-6.32,0-9.39,4.22t-3.07,12q0,7.76,3.07,11.94T904.66,118.83Z"/><path class="cls-7" d="M969.52,125.74a2.36,2.36,0,0,1-2.48-1.85l-0.86-5a27.88,27.88,0,0,1-3.07,3,19.56,19.56,0,0,1-3.5,2.37,18,18,0,0,1-4,1.53,18.38,18.38,0,0,1-4.56.54,15.7,15.7,0,0,1-7-1.56,15.15,15.15,0,0,1-5.42-4.54,22,22,0,0,1-3.5-7.38,37.23,37.23,0,0,1-1.24-10.09,31.61,31.61,0,0,1,1.38-9.52,23.25,23.25,0,0,1,4-7.61,18,18,0,0,1,14.49-6.88,15.58,15.58,0,0,1,12,4.88V58.93h9.71v66.81h-5.87Zm-15.21-7.13a12.25,12.25,0,0,0,6.37-1.58,18.5,18.5,0,0,0,5-4.56V91a12.16,12.16,0,0,0-4.49-3.63,12.94,12.94,0,0,0-5.26-1.06A10.58,10.58,0,0,0,947,90.51q-3.21,4.18-3.21,12.35a31.34,31.34,0,0,0,.72,7.25,14,14,0,0,0,2.08,4.9,8,8,0,0,0,3.29,2.75A10.72,10.72,0,0,0,954.31,118.61Z"/></svg>